<svg id="visual" viewBox="0 0 900 600" width="900" height="600" xmlns="http://www.w3.org/2000/svg" xmlns:xlink="http://www.w3.org/1999/xlink" version="1.1"><path d="M0 543L41 515L82 536L123 539L164 492L205 512L245 547L286 503L327 520L368 532L409 519L450 548L491 531L532 532L573 520L614 491L655 522L695 506L736 512L777 530L818 511L859 535L900 493L900 601L859 601L818 601L777 601L736 601L695 601L655 601L614 601L573 601L532 601L491 601L450 601L409 601L368 601L327 601L286 601L245 601L205 601L164 601L123 601L82 601L41 601L0 601Z" fill="#232222"></path><path d="M0 557L41 527L82 556L123 559L164 522L205 539L245 530L286 569L327 521L368 514L409 551L450 511L491 553L532 553L573 515L614 547L655 529L695 530L736 519L777 552L818 522L859 512L900 533L900 601L859 601L818 601L777 601L736 601L695 601L655 601L614 601L573 601L532 601L491 601L450 601L409 601L368 601L327 601L286 601L245 601L205 601L164 601L123 601L82 601L41 601L0 601Z" fill="#181717"></path><path d="M0 592L41 598L82 581L123 583L164 587L205 553L245 552L286 581L327 561L368 560L409 567L450 570L491 555L532 573L573 583L614 563L655 599L695 559L736 561L777 584L818 542L859 551L900 568L900 601L859 601L818 601L777 601L736 601L695 601L655 601L614 601L573 601L532 601L491 601L450 601L409 601L368 601L327 601L286 601L245 601L205 601L164 601L123 601L82 601L41 601L0 601Z" fill="#0a0909"></path></svg>