<svg width="900" height="600" viewBox="0 0 900 600" fill="none" xmlns="http://www.w3.org/2000/svg">
<g clip-path="url(#clip0_1_2)">
<path d="M0 543L41 515L82 536L123 539L164 492L205 512L245 547L286 503L327 520L368 532L409 519L450 548L491 531L532 532L573 520L614 491L655 522L695 506L736 512L777 530L818 511L859 535L900 493V601H859H818H777H736H695H655H614H573H532H491H450H409H368H327H286H245H205H164H123H82H41H0V543Z" fill="#B0A99F"/>
<path d="M0 557L41 527L82 556L123 559L164 522L205 539L245 530L286 569L327 521L368 514L409 551L450 511L491 553H532L573 515L614 547L655 529L695 530L736 519L777 552L818 522L859 512L900 533V601H859H818H777H736H695H655H614H573H532H491H450H409H368H327H286H245H205H164H123H82H41H0V557Z" fill="#7C7368"/>
<path d="M0 592L41 598L82 581L123 583L164 587L205 553L245 552L286 581L327 561L368 560L409 567L450 570L491 555L532 573L573 583L614 563L655 599L695 559L736 561L777 584L818 542L859 551L900 568V601H859H818H777H736H695H655H614H573H532H491H450H409H368H327H286H245H205H164H123H82H41H0V592Z" fill="#3E3A36"/>
</g>
<defs>
<clipPath id="clip0_1_2">
<rect width="900" height="600" fill="white"/>
</clipPath>
</defs>
</svg>
