<svg id="visual" viewBox="0 0 900 600" width="900" height="600" xmlns="http://www.w3.org/2000/svg" xmlns:xlink="http://www.w3.org/1999/xlink" version="1.1"><path d="M0 553L43 539L86 494L129 543L171 484L214 556L257 523L300 509L343 545L386 540L429 483L471 533L514 500L557 549L600 527L643 488L686 493L729 485L771 500L814 487L857 543L900 546L900 601L857 601L814 601L771 601L729 601L686 601L643 601L600 601L557 601L514 601L471 601L429 601L386 601L343 601L300 601L257 601L214 601L171 601L129 601L86 601L43 601L0 601Z" fill="#1b1b1b"></path><path d="M0 498L43 536L86 506L129 536L171 546L214 543L257 561L300 496L343 535L386 514L429 535L471 553L514 529L557 560L600 550L643 499L686 500L729 559L771 546L814 520L857 547L900 538L900 601L857 601L814 601L771 601L729 601L686 601L643 601L600 601L557 601L514 601L471 601L429 601L386 601L343 601L300 601L257 601L214 601L171 601L129 601L86 601L43 601L0 601Z" fill="#1e1e1e"></path><path d="M0 533L43 540L86 532L129 558L171 569L214 549L257 550L300 543L343 546L386 534L429 547L471 520L514 537L557 564L600 563L643 524L686 518L729 538L771 518L814 550L857 558L900 567L900 601L857 601L814 601L771 601L729 601L686 601L643 601L600 601L557 601L514 601L471 601L429 601L386 601L343 601L300 601L257 601L214 601L171 601L129 601L86 601L43 601L0 601Z" fill="#212121"></path><path d="M0 569L43 579L86 539L129 534L171 560L214 552L257 567L300 531L343 551L386 557L429 563L471 565L514 560L557 539L600 560L643 574L686 534L729 578L771 540L814 545L857 543L900 577L900 601L857 601L814 601L771 601L729 601L686 601L643 601L600 601L557 601L514 601L471 601L429 601L386 601L343 601L300 601L257 601L214 601L171 601L129 601L86 601L43 601L0 601Z" fill="#242424"></path><path d="M0 571L43 583L86 561L129 587L171 585L214 581L257 576L300 554L343 554L386 585L429 576L471 565L514 582L557 553L600 554L643 573L686 561L729 579L771 577L814 579L857 569L900 571L900 601L857 601L814 601L771 601L729 601L686 601L643 601L600 601L557 601L514 601L471 601L429 601L386 601L343 601L300 601L257 601L214 601L171 601L129 601L86 601L43 601L0 601Z" fill="#272727"></path><path d="M0 567L43 578L86 587L129 594L171 597L214 593L257 565L300 591L343 597L386 575L429 577L471 568L514 593L557 599L600 591L643 590L686 594L729 587L771 573L814 581L857 599L900 585L900 601L857 601L814 601L771 601L729 601L686 601L643 601L600 601L557 601L514 601L471 601L429 601L386 601L343 601L300 601L257 601L214 601L171 601L129 601L86 601L43 601L0 601Z" fill="#2a2a2a"></path></svg>